HIERARCHY
ROOT Hips
{
	OFFSET 0.000000 0.000000 0.000000 
	CHANNELS 6 Xposition Yposition Zposition Zrotation Yrotation Xrotation
	JOINT LeftUpLeg
	{
		OFFSET 1.363060 -1.794630 0.839290 
		CHANNELS 3 Zrotation Yrotation Xrotation
		JOINT LeftLeg
		{
			OFFSET 2.448110 -6.726130 0.000000 
			CHANNELS 3 Zrotation Yrotation Xrotation
			JOINT LeftFoot
			{
				OFFSET 2.562200 -7.039590 0.000000 
				CHANNELS 3 Zrotation Yrotation Xrotation
				JOINT LeftToeBase
				{
					OFFSET 0.157640 -0.433110 2.322550 
					CHANNELS 3 Zrotation Yrotation Xrotation
					End Site
					{
						OFFSET 0.000000 0.000000 0.000000 
					}
				}
			}
		}
	}
	JOINT RightUpLeg
	{
		OFFSET -1.305520 -1.794630 0.839290 
		CHANNELS 3 Zrotation Yrotation Xrotation
		JOINT RightLeg
		{
			OFFSET -2.542530 -6.985550 0.000000 
			CHANNELS 3 Zrotation Yrotation Xrotation
			JOINT RightFoot
			{
				OFFSET -2.568260 -7.056230 0.000000 
				CHANNELS 3 Zrotation Yrotation Xrotation
				JOINT RightToeBase
				{
					OFFSET -0.164730 -0.452590 2.363150 
					CHANNELS 3 Zrotation Yrotation Xrotation
					End Site
					{
						OFFSET 0.000000 0.000000 0.000000 
					}
				}
			}
		}
	}
	JOINT Spine
	{
		OFFSET 0.028270 2.035590 -0.193380 
		CHANNELS 3 Zrotation Yrotation Xrotation
		JOINT Spine1
		{
			OFFSET 0.056720 2.048850 -0.042750 
			CHANNELS 3 Zrotation Yrotation Xrotation
			JOINT Neck1
			{
				OFFSET -0.054170 1.746240 0.172020 
				CHANNELS 3 Zrotation Yrotation Xrotation
				JOINT Head
				{
					OFFSET 0.104070 1.761360 -0.123970 
					CHANNELS 3 Zrotation Yrotation Xrotation
					End Site
					{
						OFFSET 0.000000 0.000000 0.000000 
					}
				}
			}
			JOINT LeftArm
			{
				OFFSET 3.362410 1.200890 -0.311210 
				CHANNELS 3 Zrotation Yrotation Xrotation
				JOINT LeftForeArm
				{
					OFFSET 4.983000 -0.000000 -0.000000 
					CHANNELS 3 Zrotation Yrotation Xrotation
					JOINT LeftHand
					{
						OFFSET 3.483560 -0.000000 -0.000000 
						CHANNELS 3 Zrotation Yrotation Xrotation
						JOINT LeftHandIndex1
						{
							OFFSET 0.715260 -0.000000 -0.000000 
							CHANNELS 3 Zrotation Yrotation Xrotation
							End Site
							{
								OFFSET 0.000000 0.000000 0.000000 
							}
						}
					}
				}
			}
			JOINT RightArm
			{
				OFFSET -3.136600 1.374050 -0.404650 
				CHANNELS 3 Zrotation Yrotation Xrotation
				JOINT RightForeArm
				{
					OFFSET -5.241900 -0.000000 -0.000000 
					CHANNELS 3 Zrotation Yrotation Xrotation
					JOINT RightHand
					{
						OFFSET -3.444170 -0.000000 -0.000000 
						CHANNELS 3 Zrotation Yrotation Xrotation
						JOINT RightHandIndex1
						{
							OFFSET -0.622530 -0.000000 -0.000000 
							CHANNELS 3 Zrotation Yrotation Xrotation
							End Site
							{
								OFFSET 0.000000 0.000000 0.000000 
							}
						}
					}
				}
			}
		}
	}
}
MOTION
Frames: 12
Frame Time: 0.041667
-27.035733 17.295618 1.236128 177.455765 69.479322 176.784471 -25.983999 7.475576 -7.829120 1.326522 12.759898 37.320306 -2.365237 18.509648 -32.853893 0.864000 5.927200 16.573400 29.141263 14.648230 -12.141094 -1.760967 -14.208506 36.356232 2.437849 -18.295313 -31.013950 -0.004300 -0.425300 1.168600 1.139062 -0.846637 0.910352 -3.447837 -1.033526 4.435533 9.304894 -2.012450 18.502216 -0.197400 0.591100 7.354700 -91.513362 -2.049102 21.730446 28.001169 -35.261635 -15.229164 -1.274961 -4.598145 -13.977889 -7.125000 0.000000 0.000000 101.651044 -7.842599 32.332197 -13.835875 22.981592 -4.822665 0.900404 2.697523 -19.698077 7.125000 0.000000 0.000000 
-26.978929 17.297254 1.244192 176.910234 70.728416 176.038819 -25.598360 8.766937 -8.840667 1.997305 13.346501 39.360031 -3.282358 19.438032 -29.943139 0.648900 5.153000 14.345500 29.442531 15.199572 -11.343638 -1.683121 -14.066100 35.993440 2.413371 -18.195038 -30.963141 -0.002500 -0.323000 0.887600 1.107580 -0.678003 0.915898 -3.463692 -0.932551 4.337479 9.235807 -1.939866 18.524944 -0.230300 0.630300 7.413600 -91.799654 -1.806168 23.033376 28.944741 -36.065670 -16.234360 -1.251478 -4.475368 -12.850240 -7.125000 0.000000 0.000000 101.728202 -7.694731 32.137595 -13.539295 22.491907 -4.613016 0.919644 2.660895 -19.194945 7.125000 0.000000 0.000000 
-26.923060 17.297722 1.248517 176.452168 72.002269 175.360555 -25.195523 9.709815 -9.793560 2.705537 13.935864 41.458788 -4.068972 20.216819 -27.051036 0.478600 4.436700 12.308500 29.805372 15.806712 -10.524259 -1.608484 -13.929273 35.644707 2.407037 -18.156784 -30.916816 -0.000700 -0.171900 0.472300 1.078940 -0.491970 0.923699 -3.556880 -0.816502 4.238500 9.158204 -1.842958 18.515604 -0.276100 0.678800 7.452800 -92.061517 -1.556878 24.192949 29.663313 -36.670989 -17.054976 -1.230403 -4.330190 -11.704977 -7.125000 0.000000 0.000000 101.809844 -7.534508 31.989811 -13.297872 22.082447 -4.445754 0.933143 2.620451 -18.701572 7.125000 0.000000 0.000000 
-26.867776 17.298189 1.247933 176.141871 73.257890 174.846071 -24.788846 10.222393 -10.674283 3.417588 14.503867 43.521571 -4.670160 20.678657 -24.144153 0.326200 3.670600 10.151800 30.214956 16.429415 -9.719329 -1.534828 -13.795916 35.301247 2.409688 -18.156062 -30.885832 -0.000100 0.051800 -0.142400 1.058583 -0.310702 0.931655 -3.715702 -0.698313 4.147770 9.071404 -1.724065 18.476506 -0.333400 0.734900 7.471600 -92.325259 -1.297710 25.210891 30.134217 -37.068639 -17.648809 -1.222422 -4.179824 -10.539865 -7.125000 0.000000 0.000000 101.881670 -7.357633 31.876049 -13.113144 21.758897 -4.320167 0.940007 2.578499 -18.240545 7.125000 0.000000 0.000000 
-26.812725 17.299826 1.242205 176.023844 74.466121 174.557102 -24.401709 10.259823 -11.475340 4.091071 15.029350 45.448437 -5.050928 20.742271 -21.283410 0.174700 2.692600 7.424100 30.645858 17.008070 -8.969393 -1.462917 -13.666487 34.966013 2.409748 -18.155220 -30.870246 -0.003500 0.379700 -1.043400 1.051622 -0.151633 0.938398 -3.910616 -0.589692 4.068281 8.978532 -1.578981 18.418102 -0.395600 0.799800 7.473000 -92.614154 -1.033241 26.089644 30.343212 -37.254994 -17.991789 -1.222913 -4.035583 -9.369456 -7.125000 0.000000 0.000000 101.923038 -7.163223 31.799870 -12.986406 21.523619 -4.233303 0.942304 2.539094 -17.846491 7.125000 0.000000 0.000000 
-26.758142 17.302631 1.231803 176.087711 75.620900 174.485442 -24.069277 9.813305 -12.184348 4.684453 15.498714 47.156417 -5.186736 20.354268 -18.611334 0.051500 1.465100 4.029600 31.067263 17.490504 -8.299195 -1.396824 -13.544074 34.651893 2.399791 -18.119364 -30.850432 -0.016100 0.820400 -2.254700 1.060898 -0.020722 0.945180 -4.111023 -0.496760 4.001496 8.882499 -1.411783 18.349646 -0.459200 0.872200 7.462500 -92.936259 -0.791832 26.825602 30.263830 -37.205021 -18.037532 -1.246082 -3.901966 -8.221616 -7.125000 0.000000 0.000000 101.919745 -6.949534 31.778976 -12.919555 21.378173 -4.182510 0.943933 2.506955 -17.552516 7.125000 0.000000 0.000000 
-26.704026 17.306020 1.217310 176.190769 76.737532 174.475933 -23.847895 8.914408 -12.783832 5.165183 15.907571 48.590015 -5.098105 19.568536 -16.333479 0.000200 0.099600 0.273600 31.432381 17.848360 -7.710651 -1.342265 -13.432089 34.377648 2.380318 -18.035123 -30.796951 -0.046400 1.389800 -3.822200 1.084076 0.086991 0.954324 -4.296219 -0.418799 3.943653 8.792041 -1.223896 18.283303 -0.515700 0.952300 7.451100 -93.296455 -0.605575 27.382949 29.862804 -36.885585 -17.745323 -1.294097 -3.775024 -7.059234 -7.125000 0.000000 0.000000 101.870515 -6.717326 31.827611 -12.912522 21.319939 -4.164764 0.947871 2.486927 -17.376562 7.125000 0.000000 0.000000 
-26.650495 17.308942 1.199076 176.127086 77.839674 174.314789 -23.783313 7.627959 -13.271790 5.517653 16.258672 49.722689 -4.868209 18.586863 -14.625362 0.036000 -1.225400 -3.369100 31.701495 18.090271 -7.196788 -1.303396 -13.334304 34.159303 2.352455 -17.902096 -30.701747 -0.105900 2.097900 -5.776400 1.112716 0.196551 0.966546 -4.474949 -0.342346 3.883131 8.712965 -1.035600 18.220842 -0.566600 1.032600 7.436700 -93.665794 -0.498030 27.789817 29.144063 -36.277224 -17.097704 -1.396246 -3.651527 -5.824939 -7.125000 0.000000 0.000000 101.803427 -6.485717 31.930658 -12.958616 21.338663 -4.174444 0.958054 2.481072 -17.325978 7.125000 0.000000 0.000000 
-26.596847 17.310695 1.177804 175.768440 78.942662 173.867879 -23.874705 6.032768 -13.655016 5.743627 16.556687 50.550479 -4.595713 17.642942 -13.558808 0.133000 -2.351000 -6.476800 31.868690 18.231718 -6.750386 -1.282343 -13.253831 34.006100 2.320233 -17.728964 -30.555780 -0.207000 2.929500 -8.082600 1.143094 0.316647 0.982981 -4.652648 -0.262920 3.822215 8.649436 -0.856405 18.162876 -0.611600 1.109600 7.418500 -94.016660 -0.492528 28.030807 28.125477 -35.375857 -16.124076 -1.545155 -3.517972 -4.542097 -7.125000 0.000000 0.000000 101.725689 -6.254212 32.101690 -13.044624 21.413553 -4.203403 0.977112 2.487010 -17.397414 7.125000 0.000000 0.000000 
-26.542147 17.311280 1.153493 175.077143 80.048893 173.092752 -24.088145 4.214553 -13.940415 5.855322 16.804669 51.087336 -4.349731 16.897183 -13.115492 0.239700 -3.150500 -8.698000 31.952367 18.287425 -6.364211 -1.278876 -13.191987 33.917720 2.297430 -17.549436 -30.338152 -0.360100 3.855100 -10.669400 1.172821 0.448518 1.003498 -4.845944 -0.178553 3.764973 8.606773 -0.692285 18.112340 -0.648600 1.181700 7.398600 -94.322982 -0.592788 28.108547 26.860642 -34.191668 -14.876866 -1.741349 -3.388198 -3.250457 -7.125000 0.000000 0.000000 101.648881 -6.022295 32.328233 -13.157945 21.527171 -4.246096 1.002926 2.500412 -17.554268 7.125000 0.000000 0.000000 
-26.485343 17.310462 1.126611 174.066717 81.150839 172.006366 -24.371188 2.251008 -14.157649 5.865688 17.004013 51.345664 -4.186967 16.486553 -13.208522 0.344700 -3.772300 -10.436900 31.982696 18.288952 -6.031157 -1.289955 -13.148276 33.885546 2.293046 -17.392903 -30.049070 -0.563300 4.807100 -13.359100 1.201189 0.591505 1.026532 -5.067804 -0.088923 3.714594 8.580118 -0.547712 18.070810 -0.682500 1.247700 7.379500 -94.571064 -0.785328 28.013190 25.419415 -32.763911 -13.457628 -1.958708 -3.248950 -1.992757 -7.125000 0.000000 0.000000 101.580959 -5.790842 32.583431 -13.287151 21.666159 -4.300320 1.028554 2.515847 -17.754413 7.125000 0.000000 0.000000 
-26.425851 17.308825 1.097975 172.678642 82.238131 170.556616 -24.680086 0.216867 -14.333213 5.786363 17.153074 51.340677 -4.071985 16.276328 -13.645294 0.433100 -4.223300 -11.705700 31.980171 18.268210 -5.729268 -1.311944 -13.118852 33.897490 2.289636 -17.222935 -29.722538 -0.791500 5.679200 -15.856300 1.228211 0.740298 1.050036 -5.314363 0.003738 3.671053 8.561863 -0.428055 18.044715 -0.719300 1.306200 7.366800 -94.760488 -1.027901 27.725120 23.888794 -31.153661 -11.976005 -2.165242 -3.111421 -0.804356 -7.125000 0.000000 0.000000 101.519124 -5.553876 32.854056 -13.418671 21.813312 -4.362785 1.045394 2.528494 -17.976257 7.125000 0.000000 0.000000 
